<?xml version="1.0" encoding="UTF-8"?>
<svg width="257px" height="257px" viewBox="0 0 257 257" version="1.1" xmlns="http://www.w3.org/2000/svg" xmlns:xlink="http://www.w3.org/1999/xlink">
    <title>Group</title>
    <defs>
        <path d="M251.774668,0.888930565 C253.431523,0.888930565 254.774668,2.23207632 254.774668,3.88893056 L254.774668,3.88893056 L254.774668,251.377847 C254.774668,251.833584 254.670837,252.283332 254.471057,252.692947 C253.744747,254.182121 251.948742,254.800545 250.459568,254.074235 L250.459568,254.074235 L20.0289567,141.686993 L20.0289567,251.152305 C20.0289567,252.809159 18.685811,254.152305 17.0289567,254.152305 L3.02895674,254.152305 C1.37210249,254.152305 0.0289567426,252.809159 0.0289567426,251.152305 L0.0289567426,3.9049928 C0.0289567426,2.24813855 1.37210249,0.904992796 3.02895674,0.904992796 L17.0289567,0.904992796 C18.685811,0.904992796 20.0289567,2.24813855 20.0289567,3.9049928 L20.0289567,117.805993 L250.420039,1.21218292 C250.769985,1.03508451 251.150563,0.928669315 251.540068,0.898116983 Z M234.45075,33.6127545 C233.70261,32.1344265 231.897702,31.5424916 230.419374,32.2906309 L230.419374,32.2906309 L43.3862713,126.942702 C42.8025032,127.23813 42.3313175,127.716299 42.0445091,128.30435 C41.3181988,129.793524 41.936622,131.589529 43.4257961,132.31584 L43.4257961,132.31584 L230.458899,223.536927 C230.868514,223.736707 231.318262,223.840539 231.774,223.840539 C233.430854,223.840539 234.774,222.497393 234.774,220.840539 L234.774,220.840539 L234.774,34.9673805 C234.774,34.4967336 234.663266,34.0326891 234.45075,33.6127545 Z M169.190137,89.603867 C170.846991,89.603867 172.190137,90.9470127 172.190137,92.603867 L172.190137,161.53333 C172.190137,163.190185 170.846991,164.53333 169.190137,164.53333 L155.190137,164.53333 C153.533283,164.53333 152.190137,163.190185 152.190137,161.53333 L152.190137,92.603867 C152.190137,90.9470127 153.533283,89.603867 155.190137,89.603867 L169.190137,89.603867 Z" id="path-1"></path>
    </defs>
    <g id="Page-1" stroke="none" stroke-width="1" fill="none" fill-rule="evenodd">
        <g id="Group" transform="translate(0.471043, 0.971697)">
            <g id="Combined-Shape" transform="translate(0.500000, 0.038539)">
                <mask id="mask-2" fill="white">
                    <use xlink:href="#path-1"></use>
                </mask>
                <use fill="#000000" fill-rule="nonzero" xlink:href="#path-1"></use>
            </g>
        </g>
    </g>
</svg>