<svg xmlns="http://www.w3.org/2000/svg" viewBox="0 0 294.156 294.156" width="512" height="512"><g fill="#0B3A53"><path d="M227.002 108.256c-2.755-41.751-37.6-74.878-80.036-74.878-42.447 0-77.298 33.141-80.038 74.907C28.978 113.059 0 145.39 0 184.184c0 42.234 34.36 76.595 76.595 76.595h116.483a6 6 0 0 0 0-12H76.595C40.977 248.778 12 219.801 12 184.184c0-34.275 26.833-62.568 61.087-64.411a6 6 0 0 0 5.668-6.346c.09-37.536 30.654-68.049 68.211-68.049 37.563 0 68.132 30.518 68.211 68.063a6 6 0 0 0 5.687 6.321c34.37 1.741 61.292 30.038 61.292 64.421 0 19.526-8.698 37.801-23.864 50.138a5.999 5.999 0 0 0-.868 8.44 5.999 5.999 0 0 0 8.44.868c17.98-14.626 28.292-36.293 28.292-59.447 0-38.913-29.076-71.256-67.154-75.926z"/><path d="M140.966 141.078v76.511a6 6 0 0 0 12 0v-76.511a6 6 0 0 0-12 0z"/><path d="M181.283 152.204a6 6 0 0 0 4.243-10.242l-34.317-34.317a6 6 0 0 0-8.485 0l-34.317 34.317a6 6 0 0 0 8.485 8.485l30.074-30.074 30.074 30.074a5.986 5.986 0 0 0 4.243 1.757z"/></g></svg>