<svg xmlns="http://www.w3.org/2000/svg" xmlns:xlink="http://www.w3.org/1999/xlink" version="1.1" x="0" y="0" viewBox="0 0 452.6 113.3" xml:space="preserve"><path d="M105.7 37h8.9v52.4h-8.9V37zm17.7 0h18.1c3.9 0 7.2.5 9.8 1.3 2.6.8 4.6 2 6.1 3.6 1.4 1.4 2.5 3.1 3.1 5.1.6 2 .9 4 .9 6.1 0 2.2-.3 4.3-.9 6.4-.6 2-1.7 3.9-3.1 5.4-1.7 1.7-3.7 2.9-6.1 3.6-2.6.9-5.8 1.4-9.6 1.4h-9.6v19.6h-8.7V37zm18.1 25.4c1.8.1 3.7-.2 5.5-.7 1.2-.4 2.4-.9 3.4-1.8.8-.8 1.4-1.8 1.7-2.9.4-1.2.5-2.5.5-3.8 0-1.3-.1-2.6-.5-3.9-.4-1.1-.9-2-1.8-2.7-1-.8-2.2-1.4-3.4-1.7-1.8-.4-3.6-.7-5.5-.6h-9.2v18l9.3.1zM201.3 37v7.7h-24.6v14.8h23.1v7.7h-23.1v22.3h-8.9V37h33.5zm13.1 36.4c.4 3.4 1.7 5.9 3.7 7.5 2 1.5 5.2 2.4 9.3 2.4 1.7.1 3.4-.2 5-.7 1.2-.4 2.3-.9 3.3-1.7.8-.7 1.4-1.6 1.7-2.6.4-1 .5-2.1.5-3.2 0-.8-.1-1.7-.4-2.4-.3-.8-.7-1.6-1.3-2.3-.7-.8-1.6-1.4-2.6-1.8-1.3-.6-2.7-.9-4.1-1.2l-6.7-1.2c-2.4-.4-4.7-1.1-7.1-1.8-1.9-.7-3.6-1.6-5.2-2.9-1.4-1.2-2.5-2.7-3.1-4.4-.8-2-1.1-4.2-1.1-6.4-.2-4.5 2-8.7 5.6-11.2 1.9-1.3 4-2.3 6.3-2.8 2.6-.6 5.2-.9 7.9-.9 3.6 0 6.6.4 9.1 1.2 2.2.7 4.2 1.8 5.9 3.3 1.5 1.3 2.6 2.8 3.4 4.6.8 1.7 1.3 3.6 1.6 5.5l-8.4 1.3c-.7-3-1.8-5.1-3.6-6.5-1.7-1.4-4.3-2.1-8-2.1-1.8 0-3.5.2-5.2.5-1.2.3-2.4.8-3.4 1.5-.8.6-1.4 1.4-1.8 2.3-.4.8-.5 1.8-.5 2.7 0 2.3.6 4 1.8 5.2 1.2 1.2 3.4 2 6.6 2.7l7.2 1.4c5.5 1.1 9.6 2.8 12.2 5.2 2.6 2.4 3.9 6.1 3.9 10.7 0 2.1-.4 4.2-1.2 6.1-.8 1.9-2.1 3.6-3.7 4.9-1.8 1.5-3.9 2.6-6.2 3.3-2.8.8-5.7 1.2-8.6 1.2-6.7 0-12-1.4-15.8-4.2-3.8-2.8-5.9-7.2-6.3-13.1l9.3-.1z"/><path d="M1.5 86.7l42 24.3 42-24.3V38.2l-42-24.3-42 24.3v48.5z" fill="#4a9ea1"/><path d="M39.2 19.7L8.7 37.3c.1.5.1 1.1 0 1.6l30.4 17.6c2.6-1.9 6.1-1.9 8.7 0l30.4-17.6c-.1-.5-.1-1.1 0-1.6L47.8 19.8c-2.6 1.8-6.1 1.8-8.6-.1zm42 24.1L50.7 61.6c.4 3.1-1.4 6.2-4.3 7.5l.1 35c.5.2.9.5 1.4.8l30.4-17.6c-.4-3.1 1.4-6.2 4.3-7.5V44.6c-.5-.2-1-.5-1.4-.8zM5.8 44c-.4.3-.9.6-1.4.8V80c2.9 1.3 4.7 4.3 4.3 7.5L39.2 105c.4-.3.9-.6 1.4-.8V69.1c-2.9-1.3-4.7-4.3-4.3-7.5L5.8 44z" fill="#63d3d7"/><path d="M43.5 110.9l42-24.3V38.2l-42 24.2v48.5z" fill-opacity=".251"/><path d="M43.5 110.9V62.4l-42-24.2v48.5l42 24.2z" fill-opacity=".039"/><path d="M1.5 38.2l42 24.3 42-24.3-42-24.3-42 24.3z" fill-opacity=".13"/><path d="M-2438.9-1309.9h17.8v105h-17.8v-105zm35.6 0h36.3c7.9 0 14.5.9 19.6 2.6s9.2 4.1 12.1 7.1c2.9 2.8 5 6.3 6.2 10.2 1.2 3.9 1.8 8 1.8 12.1 0 4.4-.6 8.7-1.8 12.9-1.2 4-3.3 7.7-6.2 10.8-3.4 3.3-7.6 5.8-12.1 7.3-5.1 1.8-11.5 2.7-19.3 2.7h-19.1v39.3h-17.5v-105zm36.2 51c3.7.1 7.5-.3 11.1-1.3 2.5-.7 4.9-1.9 6.8-3.7 1.6-1.6 2.9-3.6 3.5-5.8.7-2.5 1-5 1-7.6.1-2.6-.3-5.2-1-7.7-.7-2.1-1.9-4-3.6-5.5-2-1.6-4.4-2.8-6.9-3.4-3.6-.9-7.2-1.3-10.9-1.2h-18.5v36.2h18.5zm119.9-51v15.3h-49.2v29.7h46.3v15.4h-46.3v44.6h-17.8v-105h67zm26.2 72.9c.8 6.9 3.3 11.9 7.4 15 4.1 3.1 10.4 4.7 18.6 4.7 3.4.1 6.8-.3 10.1-1.3 2.4-.8 4.6-1.9 6.6-3.5 1.6-1.4 2.8-3.2 3.5-5.2.7-2.1 1-4.2 1-6.4 0-1.7-.2-3.3-.7-4.9-.6-1.7-1.4-3.2-2.6-4.5-1.5-1.5-3.2-2.7-5.1-3.6-2.6-1.1-5.4-1.9-8.2-2.4l-13.4-2.5c-4.8-.8-9.5-2.1-14.1-3.7-3.8-1.3-7.3-3.3-10.4-5.8-2.8-2.4-5-5.4-6.3-8.8-1.5-4.1-2.2-8.4-2.1-12.7-.3-8.9 3.9-17.4 11.3-22.4 3.8-2.7 8.1-4.6 12.6-5.6 5.2-1.2 10.5-1.8 15.8-1.8 7.2 0 13.3.8 18.2 2.5 4.4 1.4 8.4 3.6 11.9 6.5 2.9 2.6 5.3 5.8 6.9 9.3 1.6 3.5 2.6 7.2 3.2 11l-16.8 2.6c-1.4-5.9-3.7-10.2-7.1-13.1-3.4-2.9-8.7-4.3-16.1-4.3-3.5-.1-7.1.3-10.5 1.1-2.4.6-4.8 1.6-6.8 3.1-1.6 1.2-2.9 2.8-3.7 4.6-.7 1.7-1.1 3.5-1.1 5.4 0 4.6 1.2 8 3.7 10.3 2.5 2.3 6.9 4 13.2 5.3l14.5 2.8c11.1 2.1 19.2 5.6 24.4 10.5s7.8 12.1 7.8 21.4c0 4.2-.8 8.4-2.4 12.3-1.6 3.8-4.2 7.2-7.4 9.8-3.7 3-7.9 5.2-12.4 6.6-5.6 1.7-11.4 2.5-17.3 2.4-13.4 0-24-2.8-31.6-8.5-7.6-5.7-11.9-14.4-12.6-26.2h18z"/><path d="M-2072.3-1332.2h4v155.4h-4v-155.4z"/><defs><path id="SVGID_1_" d="M-2986.5-1668.3h6494.7v3613.8h-6494.7z"/></defs><clipPath id="SVGID_2_"><use xlink:href="#SVGID_1_" overflow="visible"/></clipPath><path d="M-2033.5-1310.2h396.1v102h-396.1v-102z" clip-path="url(#SVGID_2_)" fill="none"/><path d="M-1855.6-1231.4c9.4 0 16.3-5 16.3-12.3 0-5.7-3.5-9-11-10.7l-6.6-1.5c-4.3-1-6.3-2.5-6.3-5 0-3.2 3.3-5.3 7.6-5.3 4.4 0 7.2 1.9 8 4.9h7.5c-.8-6.8-6.6-10.9-15.4-10.9-8.9 0-15.3 4.9-15.3 11.8 0 5.8 3.5 9.2 11 10.9l6.9 1.6c4 .9 5.8 2.5 5.8 5 0 3.2-3.4 5.5-8.3 5.5-4.7 0-7.6-1.9-8.6-5h-7.8c.7 6.7 6.8 11 16.2 11zm-40 0c9.7 0 15.8-5.5 16.9-13.2h-7.6c-1 4.3-4.4 6.6-9.3 6.6-6.5 0-10.5-5.3-10.5-14 0-8.5 4-13.7 10.5-13.7 5.2 0 8.4 2.9 9.3 6.8h7.6c-1-7.6-7-13.4-16.9-13.4-11.5 0-18.5 7.8-18.5 20.3 0 12.7 7 20.6 18.5 20.6zm-44.5-6.7c-6.8 0-10.6-5-10.6-13.8s3.8-13.8 10.6-13.8c6.7 0 10.6 5.1 10.6 13.8 0 8.7-3.9 13.8-10.6 13.8zm0 6.7c11.5 0 18.6-7.7 18.6-20.4s-7.1-20.4-18.6-20.4-18.6 7.8-18.6 20.4 7 20.4 18.6 20.4zm-52.3-7.8h-9.9v-38.3h9.9c10.8 0 17.3 7.1 17.3 19.1 0 12.2-6.3 19.2-17.3 19.2zm.9 7c15.6 0 24.6-9.6 24.6-26.3 0-16.5-9.1-26-24.6-26h-18.9v52.3h18.9z"/><path d="M-2438.9-1309.9h17.8v105h-17.8v-105zm35.6 0h36.3c7.9 0 14.5.9 19.6 2.6s9.2 4.1 12.1 7.1c2.9 2.8 5 6.3 6.2 10.2 1.2 3.9 1.8 8 1.8 12.1 0 4.4-.6 8.7-1.8 12.9-1.2 4-3.3 7.7-6.2 10.8-3.4 3.3-7.6 5.8-12.1 7.3-5.1 1.8-11.5 2.7-19.3 2.7h-19.1v39.3h-17.5v-105zm36.2 51c3.7.1 7.5-.3 11.1-1.3 2.5-.7 4.9-1.9 6.8-3.7 1.6-1.6 2.9-3.6 3.5-5.8.7-2.5 1-5 1-7.6.1-2.6-.3-5.2-1-7.7-.7-2.1-1.9-4-3.6-5.5-2-1.6-4.4-2.8-6.9-3.4-3.6-.9-7.2-1.3-10.9-1.2h-18.5v36.2h18.5zm119.9-51v15.3h-49.2v29.7h46.3v15.4h-46.3v44.6h-17.8v-105h67zm26.2 72.9c.8 6.9 3.3 11.9 7.4 15 4.1 3.1 10.4 4.7 18.6 4.7 3.4.1 6.8-.3 10.1-1.3 2.4-.8 4.6-1.9 6.6-3.5 1.6-1.4 2.8-3.2 3.5-5.2.7-2.1 1-4.2 1-6.4 0-1.7-.2-3.3-.7-4.9-.6-1.7-1.4-3.2-2.6-4.5-1.5-1.5-3.2-2.7-5.1-3.6-2.6-1.1-5.4-1.9-8.2-2.4l-13.4-2.5c-4.8-.8-9.5-2.1-14.1-3.7-3.8-1.3-7.3-3.3-10.4-5.8-2.8-2.4-5-5.4-6.3-8.8-1.5-4.1-2.2-8.4-2.1-12.7-.3-8.9 3.9-17.4 11.3-22.4 3.8-2.7 8.1-4.6 12.6-5.6 5.2-1.2 10.5-1.8 15.8-1.8 7.2 0 13.3.8 18.2 2.5 4.4 1.4 8.4 3.6 11.9 6.5 2.9 2.6 5.3 5.8 6.9 9.3 1.6 3.5 2.6 7.2 3.2 11l-16.8 2.6c-1.4-5.9-3.7-10.2-7.1-13.1-3.4-2.9-8.7-4.3-16.1-4.3-3.5-.1-7.1.3-10.5 1.1-2.4.6-4.8 1.6-6.8 3.1-1.6 1.2-2.9 2.8-3.7 4.6-.7 1.7-1.1 3.5-1.1 5.4 0 4.6 1.2 8 3.7 10.3 2.5 2.3 6.9 4 13.2 5.3l14.5 2.8c11.1 2.1 19.2 5.6 24.4 10.5s7.8 12.1 7.8 21.4c0 4.2-.8 8.4-2.4 12.3-1.6 3.8-4.2 7.2-7.4 9.8-3.7 3-7.9 5.2-12.4 6.6-5.6 1.7-11.4 2.5-17.3 2.4-13.4 0-24-2.8-31.6-8.5-7.6-5.7-11.9-14.4-12.6-26.2h18z"/><path d="M-2072.3-1332.2h4v155.4h-4v-155.4z"/><g><defs><path id="SVGID_3_" d="M-2986.5-1668.3h6494.7v3613.8h-6494.7z"/></defs><clipPath id="SVGID_4_"><use xlink:href="#SVGID_3_" overflow="visible"/></clipPath><path d="M-2033.5-1310.2h396.1v102h-396.1v-102z" clip-path="url(#SVGID_4_)" fill="none"/></g><path d="M-1855.6-1231.4c9.4 0 16.3-5 16.3-12.3 0-5.7-3.5-9-11-10.7l-6.6-1.5c-4.3-1-6.3-2.5-6.3-5 0-3.2 3.3-5.3 7.6-5.3 4.4 0 7.2 1.9 8 4.9h7.5c-.8-6.8-6.6-10.9-15.4-10.9-8.9 0-15.3 4.9-15.3 11.8 0 5.8 3.5 9.2 11 10.9l6.9 1.6c4 .9 5.8 2.5 5.8 5 0 3.2-3.4 5.5-8.3 5.5-4.7 0-7.6-1.9-8.6-5h-7.8c.7 6.7 6.8 11 16.2 11zm-40 0c9.7 0 15.8-5.5 16.9-13.2h-7.6c-1 4.3-4.4 6.6-9.3 6.6-6.5 0-10.5-5.3-10.5-14 0-8.5 4-13.7 10.5-13.7 5.2 0 8.4 2.9 9.3 6.8h7.6c-1-7.6-7-13.4-16.9-13.4-11.5 0-18.5 7.8-18.5 20.3 0 12.7 7 20.6 18.5 20.6zm-44.5-6.7c-6.8 0-10.6-5-10.6-13.8s3.8-13.8 10.6-13.8c6.7 0 10.6 5.1 10.6 13.8 0 8.7-3.9 13.8-10.6 13.8zm0 6.7c11.5 0 18.6-7.7 18.6-20.4s-7.1-20.4-18.6-20.4-18.6 7.8-18.6 20.4 7 20.4 18.6 20.4zm-52.3-7.8h-9.9v-38.3h9.9c10.8 0 17.3 7.1 17.3 19.1 0 12.2-6.3 19.2-17.3 19.2zm.9 7c15.6 0 24.6-9.6 24.6-26.3 0-16.5-9.1-26-24.6-26h-18.9v52.3h18.9z"/><path d="M273.7 25.5h2v77.8h-2V25.5z"/><g><path d="M302.4 57.5V36.7h7.4c1.6 0 3 .3 4 .9 1.1.6 1.9 1.4 2.4 2.4s.8 2.2.8 3.4c0 1.3-.3 2.4-.8 3.5-.5 1-1.3 1.8-2.4 2.4-1.1.6-2.4.9-4 .9h-5.1v-2.7h4.8c1 0 1.9-.2 2.5-.5.6-.4 1.1-.8 1.4-1.5.3-.6.4-1.3.4-2.1s-.1-1.5-.4-2.1c-.3-.6-.8-1.1-1.4-1.4-.6-.3-1.5-.5-2.5-.5h-3.9v18.1h-3.2zM321.4 39.5c-.5 0-1-.2-1.4-.5-.4-.4-.6-.8-.6-1.3s.2-.9.6-1.3c.4-.4.8-.5 1.4-.5s1 .2 1.4.5c.4.4.6.8.6 1.3s-.2.9-.6 1.3c-.4.3-.9.5-1.4.5zm-1.5 18V41.9h3v15.6h-3zM329.5 48.3v9.3h-3V41.9h2.9v2.5h.2c.4-.8.9-1.5 1.7-2 .8-.5 1.7-.8 2.9-.8 1.1 0 2 .2 2.8.7.8.4 1.4 1.1 1.9 2s.7 2 .7 3.2v9.9h-3V48c0-1.1-.3-2-.9-2.7-.6-.6-1.4-1-2.4-1-.7 0-1.3.2-1.9.5-.5.3-1 .8-1.3 1.3-.5.6-.6 1.3-.6 2.2zM346 48.3v9.3h-3V41.9h2.9v2.5h.2c.4-.8.9-1.5 1.7-2 .8-.5 1.7-.8 2.9-.8 1.1 0 2 .2 2.8.7.8.4 1.4 1.1 1.9 2s.7 2 .7 3.2v9.9h-3V48c0-1.1-.3-2-.9-2.7-.6-.6-1.4-1-2.4-1-.7 0-1.3.2-1.9.5-.5.3-1 .8-1.3 1.3-.4.6-.6 1.3-.6 2.2zM361 39.5c-.5 0-1-.2-1.4-.5-.4-.4-.6-.8-.6-1.3s.2-.9.6-1.3c.4-.4.8-.5 1.4-.5s1 .2 1.4.5c.4.4.6.8.6 1.3s-.2.9-.6 1.3c-.4.3-.8.5-1.4.5zm-1.5 18V41.9h3v15.6h-3zM369.1 48.3v9.3h-3V41.9h2.9v2.5h.2c.4-.8.9-1.5 1.7-2 .8-.5 1.7-.8 2.9-.8 1.1 0 2 .2 2.8.7.8.4 1.4 1.1 1.9 2s.7 2 .7 3.2v9.9h-3V48c0-1.1-.3-2-.9-2.7-.6-.6-1.4-1-2.4-1-.7 0-1.3.2-1.9.5-.5.3-1 .8-1.3 1.3-.4.6-.6 1.3-.6 2.2zM389.2 63.7c-1.2 0-2.3-.2-3.2-.5-.9-.3-1.6-.8-2.2-1.3-.6-.5-1-1.1-1.3-1.8l2.6-1.1c.2.3.4.6.7 1 .3.3.7.6 1.3.9.5.2 1.2.4 2.1.4 1.2 0 2.1-.3 2.9-.8s1.1-1.5 1.1-2.7v-3.1h-.2c-.2.3-.4.7-.8 1.1-.3.4-.8.8-1.4 1.1-.6.3-1.4.4-2.3.4-1.2 0-2.3-.3-3.3-.9-1-.6-1.8-1.4-2.3-2.6s-.9-2.5-.9-4.2c0-1.7.3-3.1.8-4.3s1.3-2.1 2.3-2.7c1-.6 2.1-1 3.4-1 1 0 1.8.2 2.3.5.6.3 1.1.7 1.4 1.1.3.4.6.8.8 1.1h.2v-2.5h3v16c0 1.3-.3 2.4-.9 3.3-.6.9-1.5 1.5-2.5 1.9-1.1.5-2.3.7-3.6.7zm-.1-8.9c.9 0 1.6-.2 2.2-.6.6-.4 1.1-1 1.4-1.8s.5-1.7.5-2.8c0-1.1-.2-2-.5-2.8-.3-.8-.8-1.4-1.4-1.9-.6-.5-1.4-.7-2.2-.7-.9 0-1.7.2-2.3.7-.6.5-1.1 1.1-1.4 1.9s-.5 1.7-.5 2.7c0 1 .2 1.9.5 2.7.3.8.8 1.4 1.4 1.8.7.6 1.4.8 2.3.8zM313.7 74.5c-.1-1-.6-1.7-1.3-2.2-.8-.5-1.8-.8-3-.8-.9 0-1.6.1-2.2.4s-1.1.6-1.5 1.1c-.3.5-.5 1-.5 1.6 0 .5.1.9.4 1.3.2.4.5.7.9.9l1.2.6c.4.2.9.3 1.3.4l2 .5c.7.2 1.3.4 2 .7.7.3 1.3.6 1.9 1.1.6.5 1.1 1 1.5 1.7s.6 1.5.6 2.4c0 1.2-.3 2.2-.9 3.1-.6.9-1.5 1.6-2.6 2.2-1.2.5-2.5.8-4.2.8-1.6 0-2.9-.2-4-.7s-2-1.2-2.7-2.1c-.6-.9-1-2-1.1-3.3h3.2c.1.8.3 1.4.7 1.9s1 .9 1.7 1.1c.7.2 1.4.4 2.2.4.9 0 1.7-.1 2.4-.4s1.2-.7 1.6-1.2.6-1.1.6-1.8c0-.6-.2-1.1-.5-1.5-.3-.4-.8-.7-1.4-1-.6-.3-1.3-.5-2-.7l-2.5-.7c-1.7-.5-3-1.1-4-2-1-.9-1.5-2-1.5-3.5 0-1.2.3-2.2 1-3.1s1.5-1.6 2.6-2.1 2.4-.7 3.8-.7 2.7.2 3.7.7 1.9 1.2 2.6 2 .9 1.9 1 3h-3zM326.7 90.2c-1.5 0-2.9-.3-4-1s-2-1.6-2.6-2.8c-.6-1.2-.9-2.6-.9-4.2s.3-3 .9-4.2c.6-1.2 1.4-2.2 2.5-2.9s2.3-1 3.8-1c.9 0 1.7.1 2.6.4.8.3 1.6.7 2.2 1.4.7.6 1.2 1.4 1.6 2.4.4 1 .6 2.2.6 3.6V83H321v-2.3h9.4c0-.8-.2-1.5-.5-2.1-.3-.6-.8-1.1-1.4-1.5s-1.3-.5-2.1-.5c-.9 0-1.6.2-2.2.6-.6.4-1.1 1-1.5 1.6-.3.7-.5 1.4-.5 2.2v1.8c0 1 .2 1.9.6 2.7.4.7.9 1.3 1.6 1.7.7.4 1.4.6 2.3.6.6 0 1.1-.1 1.6-.2.5-.2.9-.4 1.2-.7.3-.3.6-.7.8-1.2l2.9.5c-.2.8-.6 1.6-1.2 2.2-.6.6-1.3 1.1-2.2 1.5-.9.1-1.9.3-3.1.3zM336.2 89.9V74.3h2.9v2.5h.2c.3-.8.8-1.5 1.5-2s1.5-.7 2.5-.7h.7c.3 0 .5 0 .6.1V77c-.1 0-.3-.1-.7-.1-.3 0-.6-.1-.9-.1-.7 0-1.4.2-1.9.5s-1 .7-1.3 1.3-.5 1.1-.5 1.8v9.5h-3.1zM360.5 74.3l-5.7 15.6h-3.3l-5.7-15.6h3.3l4 12h.2l3.9-12h3.3zM364.4 71.8c-.5 0-1-.2-1.4-.5-.4-.4-.6-.8-.6-1.3s.2-.9.6-1.3c.4-.4.8-.5 1.4-.5s1 .2 1.4.5c.4.4.6.8.6 1.3s-.2.9-.6 1.3c-.5.4-.9.5-1.4.5zm-1.6 18.1V74.3h3v15.6h-3zM376 90.2c-1.5 0-2.8-.3-3.9-1s-1.9-1.6-2.5-2.9c-.6-1.2-.9-2.6-.9-4.2s.3-3 .9-4.2c.6-1.2 1.4-2.2 2.5-2.9 1.1-.7 2.4-1 3.8-1 1.2 0 2.2.2 3.2.7.9.4 1.7 1 2.3 1.8.6.8.9 1.7 1 2.8h-3c-.2-.7-.5-1.4-1.1-1.9s-1.4-.8-2.3-.8c-.8 0-1.6.2-2.2.7-.6.4-1.1 1.1-1.5 1.9s-.5 1.8-.5 2.9c0 1.1.2 2.1.5 3 .3.8.8 1.5 1.5 1.9.6.5 1.4.7 2.2.7.6 0 1.1-.1 1.6-.3.5-.2.9-.5 1.2-.9s.5-.9.7-1.4h3c-.1 1-.4 1.9-1 2.7-.5.8-1.3 1.4-2.2 1.9s-2.1.5-3.3.5zM391.8 90.2c-1.5 0-2.9-.3-4-1s-2-1.6-2.6-2.8c-.6-1.2-.9-2.6-.9-4.2s.3-3 .9-4.2c.6-1.2 1.4-2.2 2.5-2.9s2.3-1 3.8-1c.9 0 1.7.1 2.6.4.8.3 1.6.7 2.2 1.4.7.6 1.2 1.4 1.6 2.4.4 1 .6 2.2.6 3.6V83h-12.4v-2.3h9.4c0-.8-.2-1.5-.5-2.1-.3-.6-.8-1.1-1.4-1.5s-1.3-.5-2.1-.5c-.9 0-1.6.2-2.2.6-.6.4-1.1 1-1.5 1.6-.3.7-.5 1.4-.5 2.2v1.8c0 1 .2 1.9.6 2.7.4.7.9 1.3 1.6 1.7.7.4 1.4.6 2.3.6.6 0 1.1-.1 1.6-.2.5-.2.9-.4 1.2-.7.3-.3.6-.7.8-1.2l2.9.5c-.2.8-.6 1.6-1.2 2.2-.6.6-1.3 1.1-2.2 1.5-.9.1-1.9.3-3.1.3zM410.4 89.9H407l7.5-20.8h3.6l7.5 20.8h-3.3l-5.9-17.1h-.2l-5.8 17.1zm.5-8.2h10.8v2.6h-10.8v-2.6zM428.1 89.9V69h7.4c1.6 0 3 .3 4 .9 1.1.6 1.9 1.4 2.4 2.4s.8 2.2.8 3.4c0 1.3-.3 2.4-.8 3.5-.5 1-1.3 1.8-2.4 2.4-1.1.6-2.4.9-4 .9h-5.1v-2.7h4.8c1 0 1.9-.2 2.5-.5.6-.4 1.1-.8 1.4-1.5.3-.6.4-1.3.4-2.1s-.1-1.5-.4-2.1c-.3-.6-.8-1.1-1.4-1.4-.6-.3-1.5-.5-2.5-.5h-3.9v18.1h-3.2zM449 69v20.8h-3.1V69h3.1z"/></g></svg>
